<?xml version="1.0" encoding="UTF-8" standalone="no"?>
<!DOCTYPE svg PUBLIC "-//W3C//DTD SVG 1.1//EN" "http://www.w3.org/Graphics/SVG/1.1/DTD/svg11.dtd">
<svg width="100%" height="100%" viewBox="0 0 950 566" version="1.1" xmlns="http://www.w3.org/2000/svg" xmlns:xlink="http://www.w3.org/1999/xlink" xml:space="preserve" style="fill-rule:evenodd;clip-rule:evenodd;stroke-linejoin:round;stroke-miterlimit:1.41421;">
    <g id="Ebene-1" transform="matrix(4.16667,0,0,4.16667,0,0)">
        <path d="M44.767,51.131C48.687,51.131 52.006,47.89 52.006,43.851C52.006,39.933 48.687,36.813 44.727,36.813L37.609,36.813L37.609,51.131L44.767,51.131ZM35.729,35.453C35.729,35.173 35.969,34.933 36.248,34.933L44.847,34.933C49.806,34.933 53.886,38.973 53.886,43.891C53.886,48.89 49.806,52.97 44.887,52.97L37.609,52.97L37.609,62.408C37.609,62.689 37.369,62.929 36.968,62.929L36.248,62.929C35.969,62.929 35.729,62.689 35.729,62.408L35.729,35.453Z" style="fill:white;fill-rule:nonzero;"/>
        <path d="M59.488,35.453C59.488,35.173 59.728,34.933 60.008,34.933L60.887,34.933C61.168,34.933 61.408,35.173 61.408,35.453L61.408,62.408C61.408,62.728 61.128,62.929 60.847,62.929L60.008,62.929C59.728,62.929 59.488,62.688 59.488,62.408L59.488,35.453Z" style="fill:white;fill-rule:nonzero;"/>
        <path d="M86.885,62.328L78.127,48.611L86.365,35.533C86.566,35.213 86.446,34.933 86.045,34.933L84.766,34.933C84.566,34.933 84.365,35.013 84.245,35.173L76.927,46.932L76.887,46.932L69.649,35.173C69.529,35.013 69.328,34.933 69.128,34.933L67.849,34.933C67.448,34.933 67.328,35.213 67.529,35.533L75.727,48.611L67.049,62.328C66.849,62.648 66.969,62.929 67.368,62.929L68.649,62.929C68.849,62.929 69.048,62.849 69.168,62.688L76.887,50.331L76.927,50.331L84.766,62.688C84.886,62.849 85.085,62.929 85.285,62.929L86.566,62.929C86.965,62.929 87.085,62.648 86.885,62.328" style="fill:white;fill-rule:nonzero;"/>
        <path d="M92.487,35.453C92.487,35.173 92.727,34.933 93.008,34.933L109.045,34.933C109.325,34.933 109.564,35.173 109.564,35.453L109.564,36.133C109.564,36.413 109.325,36.653 109.045,36.653L94.407,36.653L94.407,47.691L107.085,47.691C107.365,47.691 107.605,47.931 107.605,48.211L107.605,48.891C107.605,49.171 107.365,49.411 107.085,49.411L94.407,49.411L94.407,61.249L109.045,61.249C109.325,61.249 109.564,61.488 109.564,61.768L109.564,62.408C109.564,62.688 109.325,62.929 109.045,62.929L93.008,62.929C92.727,62.929 92.487,62.688 92.487,62.408L92.487,35.453Z" style="fill:white;fill-rule:nonzero;"/>
        <path d="M116.407,35.453C116.407,35.173 116.647,34.933 116.927,34.933L117.806,34.933C118.047,34.933 118.287,35.173 118.287,35.453L118.287,61.249L131.045,61.249C131.524,61.249 131.564,61.488 131.564,61.768L131.564,62.488C131.564,62.768 131.324,62.929 131.045,62.929L116.927,62.929C116.647,62.929 116.407,62.688 116.407,62.408L116.407,35.453Z" style="fill:white;fill-rule:nonzero;"/>
        <path d="M48.809,70.368C52.848,70.368 55.768,71.648 58.488,74.088C58.847,74.407 58.847,74.888 58.528,75.207L56.087,77.726C55.808,78.047 55.408,78.047 55.088,77.726C53.409,76.247 51.168,75.367 48.929,75.367C43.81,75.367 40.01,79.646 40.01,84.685C40.01,89.684 43.85,93.924 48.969,93.924C51.369,93.924 53.409,93.005 55.088,91.644C55.408,91.364 55.848,91.404 56.087,91.644L58.568,94.204C58.887,94.484 58.807,95.004 58.528,95.284C55.808,97.924 52.369,99.163 48.809,99.163C40.81,99.163 34.371,92.805 34.371,84.806C34.371,76.806 40.81,70.368 48.809,70.368" style="fill:white;fill-rule:nonzero;"/>
        <path d="M76.009,93.964C81.048,93.964 85.207,89.845 85.207,84.806C85.207,79.767 81.048,75.568 76.009,75.568C70.969,75.568 66.85,79.767 66.85,84.806C66.85,89.845 70.969,93.964 76.009,93.964M76.009,70.368C84.007,70.368 90.406,76.807 90.406,84.806C90.406,92.805 84.007,99.163 76.009,99.163C68.01,99.163 61.651,92.805 61.651,84.806C61.651,76.807 68.01,70.368 76.009,70.368" style="fill:white;fill-rule:nonzero;"/>
        <path d="M99.13,75.567L93.011,75.567C92.571,75.567 92.251,75.207 92.251,74.807L92.251,71.528C92.251,71.128 92.571,70.768 93.011,70.768L110.488,70.768C110.928,70.768 111.248,71.128 111.248,71.528L111.248,74.807C111.248,75.207 110.928,75.567 110.488,75.567L104.369,75.567L104.369,98.004C104.369,98.403 104.01,98.763 103.609,98.763L99.89,98.763C99.49,98.763 99.13,98.403 99.13,98.004L99.13,75.567Z" style="fill:white;fill-rule:nonzero;"/>
        <path d="M119.688,75.567L113.571,75.567C113.13,75.567 112.809,75.207 112.809,74.807L112.809,71.528C112.809,71.128 113.13,70.768 113.571,70.768L131.046,70.768C131.486,70.768 131.807,71.128 131.807,71.528L131.807,74.807C131.807,75.207 131.486,75.567 131.046,75.567L124.928,75.567L124.928,98.004C124.928,98.403 124.568,98.763 124.167,98.763L120.449,98.763C120.048,98.763 119.688,98.403 119.688,98.004L119.688,75.567Z" style="fill:white;fill-rule:nonzero;"/>
        <path d="M148.048,93.964C153.087,93.964 157.246,89.845 157.246,84.806C157.246,79.767 153.087,75.568 148.048,75.568C143.009,75.568 138.89,79.767 138.89,84.806C138.89,89.845 143.009,93.964 148.048,93.964M148.048,70.368C156.047,70.368 162.445,76.807 162.445,84.806C162.445,92.805 156.047,99.163 148.048,99.163C140.05,99.163 133.691,92.805 133.691,84.806C133.691,76.807 140.05,70.368 148.048,70.368" style="fill:white;fill-rule:nonzero;"/>
        <path d="M167.689,71.088C167.689,70.689 168.048,70.368 168.449,70.368L169.449,70.368L186.085,88.045L186.126,88.045L186.126,71.528C186.126,71.128 186.446,70.769 186.885,70.769L190.565,70.769C190.964,70.769 191.325,71.128 191.325,71.528L191.325,98.443C191.325,98.844 190.964,99.163 190.565,99.163L189.605,99.163L172.888,80.807L172.848,80.807L172.848,98.004C172.848,98.403 172.528,98.764 172.088,98.764L168.449,98.764C168.048,98.764 167.689,98.403 167.689,98.004L167.689,71.088Z" style="fill:white;fill-rule:nonzero;"/>
        <path d="M204.467,90.104L200.748,90.104C200.348,90.104 199.988,90.464 199.988,90.864L199.988,107.758L183.046,107.758C182.647,107.758 182.286,108.118 182.286,108.518L182.286,112.237C182.286,112.637 182.647,112.997 183.046,112.997L205.227,112.997L205.227,90.864C205.227,90.464 204.867,90.104 204.467,90.104" style="fill:white;fill-rule:nonzero;"/>
        <path d="M44.047,21.079L27.105,21.079L21.914,21.079L21.866,21.079L21.866,43.212C21.866,43.611 22.226,43.972 22.626,43.972L26.345,43.972C26.745,43.972 27.105,43.611 27.105,43.212L27.105,26.317L44.047,26.317C44.446,26.317 44.807,25.958 44.807,25.558L44.807,21.839C44.807,21.438 44.446,21.079 44.047,21.079" style="fill:white;fill-rule:nonzero;"/>
    </g>
</svg>
